<?xml version="1.0" encoding="UTF-8"?>
<svg xmlns="http://www.w3.org/2000/svg" width="261" height="37" viewBox="0 0 261 37" fill="none">
  <g clip-path="url(#clip0_77_2)">
    <path fill-rule="evenodd" clip-rule="evenodd" d="M24.988 28.1439C24.4906 28.2876 23.9434 28.365 23.4239 28.3429H18.2726C17.5983 28.3429 16.9406 28.5253 16.3547 28.8735C14.5308 29.9678 13.9062 32.3997 14.9564 34.2955C16.0065 36.1913 18.3445 36.8435 20.1684 35.7492C20.7598 35.3954 21.2352 34.8869 21.5778 34.279L24.9825 28.1439H24.988Z" fill="#EB3C62"></path>
    <path fill-rule="evenodd" clip-rule="evenodd" d="M12.3199 30.504C12.7289 28.6745 13.7514 27.1048 15.1939 26.1431C16.1225 25.5241 17.1671 25.198 18.2394 25.198H24.4629C25.1869 25.1703 25.8833 24.9382 26.5134 24.5237C27.138 24.1091 27.6686 23.5233 28.0444 22.8158L32.035 14.8457C31.4657 15.0281 30.8743 15.1166 30.2884 15.1055H12.2148C11.4355 15.1055 10.6783 15.3321 9.99848 15.7798C7.90924 17.1726 7.19072 20.2623 8.39562 22.6721L12.3199 30.4984V30.504Z" fill="#EB3C62"></path>
    <path fill-rule="evenodd" clip-rule="evenodd" d="M5.80344 18.1896C6.32851 16.0617 7.64949 14.2378 9.50106 13.1268C10.717 12.3973 12.0877 12.0269 13.4916 12.0269H36.7717C38.8444 12.0656 40.7457 10.927 41.7848 9.05889L46.8089 0C46.212 0.17134 45.5929 0.270827 44.9628 0.298463H5.63763C2.52588 0.298463 0 2.92935 0 6.1627C0 7.23495 0.281881 8.27957 0.818009 9.2026L5.80897 18.1896H5.80344Z" fill="#FFAA4D"></path>
    <path d="M66.032 6.23455C62.5002 5.96925 60.737 7.38418 60.737 10.4793V10.7281H66.032V16.9184H60.737V35.6939H54.2925V16.9184H50.6943V10.7281H54.2925V10.4793C54.2925 6.95307 55.2763 4.27243 57.2384 2.43744C59.2005 0.607974 62.1299 -0.193454 66.0265 0.038684V6.22902L66.032 6.23455Z" fill="white"></path>
    <path d="M85.1779 10.7281H91.6225V35.6994H85.1779V32.9027C83.6137 35.2352 81.1321 36.3958 77.7384 36.3958C75.0081 36.3958 72.753 35.4784 70.9733 33.6489C69.1936 31.8194 68.3037 29.288 68.3037 26.0602V10.7281H74.7483V25.2588C74.7483 26.9224 75.196 28.1992 76.0969 29.078C76.9978 29.9623 78.1917 30.399 79.695 30.399C81.3587 30.399 82.6907 29.8849 83.6911 28.8514C84.6915 27.8178 85.189 26.2702 85.189 24.2086V10.7225L85.1779 10.7281Z" fill="white"></path>
    <path d="M110.392 10.0261C113.123 10.0261 115.378 10.9436 117.158 12.7731C118.937 14.6026 119.827 17.134 119.827 20.3618V35.6939H113.383V21.1632C113.383 19.4995 112.935 18.2228 112.034 17.344C111.133 16.4596 109.939 16.023 108.436 16.023C106.772 16.023 105.44 16.537 104.44 17.5706C103.439 18.6042 102.942 20.1517 102.942 22.2133V35.6994H96.4973V10.7281H102.942V13.5248C104.506 11.1923 106.988 10.0317 110.381 10.0317L110.392 10.0261Z" fill="white"></path>
    <path d="M138.21 10.0261C140.941 10.0261 143.196 10.9436 144.975 12.7731C146.755 14.6026 147.645 17.134 147.645 20.3618V35.6939H141.2V21.1632C141.2 19.4995 140.753 18.2228 139.852 17.344C138.951 16.4596 137.757 16.023 136.254 16.023C134.59 16.023 133.258 16.537 132.258 17.5706C131.257 18.6042 130.76 20.1517 130.76 22.2133V35.6994H124.315V10.7281H130.76V13.5248C132.324 11.1923 134.806 10.0317 138.199 10.0317L138.21 10.0261Z" fill="white"></path>
    <path d="M156.875 25.8557C157.743 28.984 160.086 30.5482 163.917 30.5482C166.382 30.5482 168.244 29.7136 169.51 28.05L174.705 31.0456C172.24 34.6106 168.615 36.3903 163.817 36.3903C159.688 36.3903 156.378 35.1412 153.879 32.643C151.381 30.1447 150.132 26.9998 150.132 23.2027C150.132 19.4056 151.365 16.3049 153.83 13.7901C156.295 11.2752 159.456 10.0206 163.32 10.0206C166.984 10.0206 170.002 11.2863 172.384 13.8177C174.766 16.3491 175.955 19.4774 175.955 23.2082C175.955 24.0428 175.872 24.9216 175.706 25.8557H156.881H156.875ZM156.776 20.8647H169.51C169.145 19.1679 168.388 17.9022 167.238 17.0676C166.089 16.2386 164.784 15.8185 163.32 15.8185C161.59 15.8185 160.158 16.2607 159.025 17.1395C157.892 18.0238 157.146 19.2619 156.776 20.8592V20.8647Z" fill="white"></path>
    <path d="M179.448 36.0532V0.0828857H185.892V36.0532H179.448Z" fill="white"></path>
    <path d="M204.668 10.5512C207.398 10.5512 209.653 11.4632 211.433 13.2816C213.213 15.1 214.103 17.6148 214.103 20.826V36.0587H207.658V21.6219C207.658 19.9693 207.21 18.7036 206.309 17.8248C205.408 16.9515 204.215 16.5094 202.711 16.5094C201.048 16.5094 199.716 17.0234 198.715 18.0459C197.715 19.0739 197.217 20.6105 197.217 22.661V36.0587H190.773V0.0828857H197.206L197.217 14.0222C198.781 11.7063 201.263 10.5512 204.657 10.5512H204.668Z" fill="white"></path>
    <path d="M239.875 32.5766C237.311 35.1246 234.182 36.3958 230.485 36.3958C226.787 36.3958 223.67 35.1246 221.122 32.5766C218.574 30.0286 217.303 26.9058 217.303 23.2137C217.303 19.5217 218.574 16.3988 221.122 13.8509C223.67 11.3029 226.793 10.0316 230.485 10.0316C234.177 10.0316 237.311 11.3029 239.875 13.8509C242.44 16.3988 243.722 19.5217 243.722 23.2137C243.722 26.9058 242.44 30.0286 239.875 32.5766ZM225.665 28.155C226.947 29.4538 228.55 30.1005 230.485 30.1005C232.419 30.1005 234.028 29.4538 235.327 28.155C236.625 26.8561 237.272 25.209 237.272 23.2082C237.272 21.2074 236.625 19.5603 235.327 18.2615C234.028 16.9626 232.414 16.3159 230.485 16.3159C228.556 16.3159 226.947 16.9626 225.665 18.2615C224.383 19.5603 223.742 21.2074 223.742 23.2082C223.742 25.209 224.383 26.8561 225.665 28.155Z" fill="white"></path>
    <path d="M261 16.9184H255.357V27.3038C255.357 28.1715 255.572 28.8016 256.003 29.1996C256.435 29.5975 257.07 29.8241 257.899 29.8739C258.734 29.9236 259.762 29.9181 260.994 29.8462V35.6884C256.567 36.1858 253.444 35.7713 251.631 34.4393C249.819 33.1072 248.912 30.725 248.912 27.2983V16.9129H244.568V10.7225H248.912V3.7363H255.357V10.7281H261V16.9184Z" fill="white"></path>
  </g>
  <defs>
    <clipPath id="clip0_77_2">
      <rect width="261" height="36.3959" fill="white"></rect>
    </clipPath>
  </defs>
</svg>
