<svg version="1.2" xmlns="http://www.w3.org/2000/svg" viewBox="0 0 261 37" width="261" height="37"><defs><clipPath clipPathUnits="userSpaceOnUse" id="cp1"><path d="m0 0h261v36.4h-261z"/></clipPath></defs><style>.a{fill:#eb3c62}.b{fill:#ffaa4d}.c{opacity:.7}</style><g clip-path="url(#cp1)"><path fill-rule="evenodd" class="a" d="m25 28.1c-0.5 0.2-1.1 0.3-1.6 0.2h-5.1q-1.1 0-1.9 0.6c-1.9 1.1-2.5 3.5-1.4 5.4 1 1.9 3.3 2.5 5.2 1.4q0.9-0.5 1.4-1.4l3.4-6.2z"/><path fill-rule="evenodd" class="a" d="m12.3 30.5c0.4-1.8 1.5-3.4 2.9-4.4 0.9-0.6 2-0.9 3-0.9h6.3q1.1 0 2-0.7c0.6-0.4 1.2-1 1.5-1.7l4-8q-0.8 0.3-1.7 0.3h-18.1q-1.2 0-2.2 0.7c-2.1 1.4-2.8 4.5-1.6 6.9l3.9 7.8z"/><path fill-rule="evenodd" class="b" d="m5.8 18.2c0.5-2.1 1.8-4 3.7-5.1 1.2-0.7 2.6-1.1 4-1.1h23.3c2 0.1 3.9-1.1 5-2.9l5-9.1q-0.9 0.3-1.8 0.3h-39.4c-3.1 0-5.6 2.6-5.6 5.9 0 1 0.3 2.1 0.8 3l5 9z"/><path class="c" d="m66 6.2q-5.3-0.4-5.3 4.3v0.2h5.3v6.2h-5.3v18.8h-6.4v-18.8h-3.6v-6.2h3.6v-0.2q0-5.3 2.9-8.1 3-2.7 8.8-2.4v6.2z"/><path class="c" d="m85.2 10.7h6.4v25h-6.4v-2.8q-2.4 3.5-7.5 3.5-4.1 0-6.7-2.8-2.7-2.7-2.7-7.5v-15.4h6.4v14.6q0 2.5 1.4 3.8 1.3 1.3 3.6 1.3 2.5 0 4-1.5 1.5-1.6 1.5-4.7v-13.5z"/><path class="c" d="m110.4 10q4.1 0 6.8 2.8 2.6 2.7 2.6 7.6v15.3h-6.4v-14.5q0-2.5-1.4-3.9-1.3-1.3-3.6-1.3-2.5 0-4 1.6-1.5 1.5-1.5 4.6v13.5h-6.4v-25h6.4v2.8q2.4-3.5 7.5-3.5z"/><path class="c" d="m138.2 10q4.1 0 6.8 2.8 2.6 2.7 2.6 7.6v15.3h-6.4v-14.5q0-2.5-1.3-3.9-1.4-1.3-3.6-1.3-2.5 0-4 1.6-1.5 1.5-1.5 4.6v13.5h-6.5v-25h6.5v2.8q2.3-3.5 7.4-3.5z"/><path class="c" d="m156.9 25.9q1.3 4.6 7 4.6 3.7 0 5.6-2.5l5.2 3q-3.7 5.4-10.9 5.4-6.2 0-9.9-3.8-3.8-3.7-3.8-9.4c0-3.8 1.3-6.9 3.7-9.4q3.7-3.8 9.5-3.8 5.5 0 9.1 3.8 3.6 3.8 3.6 9.4 0 1.3-0.3 2.7h-18.8zm-0.1-5h12.7q-0.5-2.6-2.3-3.8-1.7-1.3-3.9-1.3-2.6 0-4.3 1.3-1.7 1.4-2.2 3.8z"/><path class="c" d="m179.4 36.1v-36h6.5v36z"/><path class="c" d="m204.7 10.6q4.1 0 6.7 2.7 2.7 2.7 2.7 7.5v15.3h-6.4v-14.5q0-2.5-1.4-3.8-1.3-1.3-3.6-1.3-2.5 0-4 1.5-1.5 1.6-1.5 4.7v13.4h-6.4v-36h6.4v13.9q2.4-3.5 7.5-3.4z"/><path class="c" d="m239.9 32.6q-3.9 3.8-9.4 3.8-5.6 0-9.4-3.8-3.8-3.8-3.8-9.4 0-5.5 3.8-9.3 3.8-3.9 9.4-3.9 5.5 0 9.4 3.9 3.8 3.8 3.8 9.3 0 5.6-3.8 9.4zm-14.2-4.4q1.9 1.9 4.8 1.9 2.9 0 4.8-1.9 2-2 2-5 0-3-2-4.9-1.9-2-4.8-2-2.9 0-4.8 2-2 1.9-2 4.9 0 3 2 5z"/><path class="c" d="m261 16.9h-5.6v10.4q0 1.3 0.6 1.9 0.7 0.6 1.9 0.7 1.2 0.1 3.1-0.1v5.9q-6.6 0.7-9.4-1.3-2.7-2-2.7-7.1v-10.4h-4.3v-6.2h4.3v-7h6.5v7h5.6z"/></g></svg>