<svg version="1.2" xmlns="http://www.w3.org/2000/svg" viewBox="0 0 47 37" width="112" height="88"><defs><clipPath clipPathUnits="userSpaceOnUse" id="cp1"><path d="m0 0h261v36.4h-261z"/></clipPath></defs><style>.a{fill:#eb3c62}.b{fill:#ffaa4d}</style><g clip-path="url(#cp1)"><path fill-rule="evenodd" class="a" d="m25 28.1c-0.5 0.2-1.1 0.3-1.6 0.2h-5.1q-1.1 0-1.9 0.6c-1.9 1.1-2.5 3.5-1.4 5.4 1 1.9 3.3 2.5 5.2 1.4q0.9-0.5 1.4-1.4l3.4-6.2z"/><path fill-rule="evenodd" class="a" d="m12.3 30.5c0.4-1.8 1.5-3.4 2.9-4.4 0.9-0.6 2-0.9 3-0.9h6.3q1.1 0 2-0.7c0.6-0.4 1.2-1 1.5-1.7l4-8q-0.8 0.3-1.7 0.3h-18.1q-1.2 0-2.2 0.7c-2.1 1.4-2.8 4.5-1.6 6.9l3.9 7.8z"/><path fill-rule="evenodd" class="b" d="m5.8 18.2c0.5-2.1 1.8-4 3.7-5.1 1.2-0.7 2.6-1.1 4-1.1h23.3c2 0.1 3.9-1.1 5-2.9l5-9.1q-0.9 0.3-1.8 0.3h-39.4c-3.1 0-5.6 2.6-5.6 5.9 0 1 0.3 2.1 0.8 3l5 9z"/></g></svg>